<?xml version="1.0" standalone="no"?>
<!DOCTYPE svg PUBLIC "-//W3C//DTD SVG 20010904//EN"
 "http://www.w3.org/TR/2001/REC-SVG-20010904/DTD/svg10.dtd">
<svg version="1.0" xmlns="http://www.w3.org/2000/svg"
 width="900.000000pt" height="270.000000pt" viewBox="0 0 900.000000 270.000000"
 preserveAspectRatio="xMidYMid meet">
<metadata>
Created by potrace 1.10, written by Peter Selinger 2001-2011
</metadata>
<g transform="translate(0.000000,270.000000) scale(0.100000,-0.100000)"
fill="#000000" stroke="none">
<path d="M7546 2020 c-55 -41 -98 -81 -101 -93 -3 -12 -5 -60 -3 -107 l3 -85
110 0 110 0 0 174 c0 118 -4 176 -11 178 -6 2 -54 -28 -108 -67z"/>
<path d="M2950 2012 c-14 -9 -54 -41 -90 -72 -36 -31 -81 -67 -100 -80 -19
-13 -51 -37 -70 -52 -19 -15 -66 -51 -105 -79 -277 -201 -406 -359 -476 -584
-30 -96 -32 -343 -4 -425 67 -199 187 -342 357 -423 108 -52 164 -57 583 -57
418 0 474 5 583 57 400 188 505 720 220 1112 -69 94 -182 196 -423 378 -126
95 -249 189 -273 208 -40 32 -49 35 -110 34 -45 0 -75 -6 -92 -17z m128 -169
c9 -10 46 -40 82 -68 93 -72 99 -83 50 -102 -73 -27 -56 -161 29 -237 11 -11
26 -37 32 -58 14 -53 41 -78 84 -78 46 0 85 39 85 85 0 46 -32 113 -79 165
-38 42 -54 90 -31 90 23 0 220 -159 310 -249 127 -128 177 -227 200 -398 12
-90 -3 -211 -35 -287 -50 -117 -154 -220 -273 -268 -56 -22 -67 -23 -452 -26
-274 -3 -412 0 -450 8 -186 39 -326 182 -374 381 -20 82 -20 139 -1 237 25
125 51 182 133 290 54 71 170 176 305 275 71 51 87 57 87 29 0 -19 -49 -94
-69 -107 -24 -14 -51 -86 -51 -133 0 -39 5 -53 24 -72 47 -43 120 -19 132 45
3 19 23 54 43 77 59 69 71 93 71 146 0 57 -20 82 -75 91 l-36 6 23 23 c13 12
50 44 83 70 32 26 67 55 77 65 10 9 27 17 38 17 11 0 28 -8 38 -17z"/>
<path d="M2985 1785 c-25 -24 -25 -25 -25 -230 0 -205 0 -206 25 -230 32 -33
78 -33 111 0 l25 25 -3 211 c-3 208 -3 211 -27 230 -32 26 -77 24 -106 -6z"/>
<path d="M6535 2007 c-16 -12 -41 -32 -55 -45 -14 -13 -122 -97 -240 -187
-257 -194 -325 -255 -401 -357 -96 -130 -141 -245 -160 -405 -42 -373 176
-692 519 -762 81 -17 820 -14 899 3 130 28 271 119 359 231 166 213 191 516
65 795 -30 68 -133 201 -209 271 -37 34 -165 136 -285 228 -120 91 -243 185
-274 209 -52 40 -59 42 -122 42 -52 -1 -72 -5 -96 -23z m141 -169 c16 -13 36
-30 44 -38 9 -9 37 -31 63 -49 52 -38 60 -65 22 -75 -26 -7 -55 -51 -55 -85 0
-33 36 -104 73 -145 19 -22 38 -53 41 -71 14 -74 93 -101 141 -49 43 46 25
135 -43 214 -26 30 -42 59 -42 74 0 14 2 26 5 26 9 0 235 -174 276 -212 103
-94 172 -201 211 -326 29 -95 29 -272 -1 -356 -59 -166 -171 -276 -327 -319
-52 -15 -114 -17 -445 -17 -346 0 -391 2 -450 19 -154 44 -272 162 -329 327
-28 79 -28 254 -1 339 42 132 92 215 188 311 63 63 320 260 329 251 9 -9 -26
-81 -55 -112 -44 -48 -62 -83 -68 -135 -7 -59 11 -92 56 -108 41 -14 94 20 99
63 2 16 22 51 44 78 77 92 96 159 58 205 -10 13 -35 26 -54 29 -32 5 -34 7
-23 24 7 10 38 37 68 61 30 23 56 45 59 48 15 17 64 50 75 50 7 0 25 -10 41
-22z"/>
<path d="M6581 1791 c-24 -18 -24 -22 -27 -192 -5 -221 0 -265 32 -286 34 -22
71 -19 100 7 l24 23 0 213 c0 206 -1 214 -22 234 -27 25 -75 26 -107 1z"/>
<path d="M636 1924 c-14 -14 -16 -99 -16 -788 0 -587 3 -775 12 -784 14 -14
245 -17 267 -3 11 7 13 91 15 454 1 321 4 449 13 457 8 9 13 6 18 -11 4 -13
13 -37 20 -54 15 -36 87 -211 151 -367 86 -212 83 -208 167 -208 39 0 87 34
87 62 0 12 40 109 184 448 33 79 66 143 71 142 6 -1 11 -163 12 -454 1 -249 5
-458 7 -465 7 -18 246 -19 264 -1 16 16 17 1539 2 1569 -10 17 -22 19 -128 19
-64 0 -122 -4 -128 -8 -20 -13 -46 -70 -209 -452 -65 -150 -121 -281 -125
-290 -24 -51 -40 -75 -50 -75 -6 0 -25 32 -41 70 -35 81 -67 153 -79 176 -4 8
-40 91 -80 184 -40 93 -75 176 -80 184 -4 9 -14 32 -22 51 -42 97 -62 136 -76
148 -25 19 -236 17 -256 -4z"/>
<path d="M4225 1928 c-3 -7 -4 -364 -3 -793 l3 -780 140 0 140 0 3 446 c2 369
5 449 16 458 12 10 16 7 21 -11 7 -23 85 -217 109 -273 8 -16 35 -82 61 -145
26 -63 56 -134 67 -157 l19 -43 63 0 c48 0 67 4 79 18 10 10 17 22 17 26 0 6
60 153 116 284 14 33 18 41 73 171 17 40 31 79 31 85 1 6 12 25 25 41 l25 30
0 -452 c0 -248 3 -458 6 -467 5 -14 27 -16 140 -16 l134 0 -2 793 -3 792 -126
3 c-110 2 -127 0 -141 -15 -9 -10 -69 -142 -133 -293 -65 -150 -121 -281 -125
-290 -4 -8 -14 -31 -22 -50 -86 -198 -90 -203 -108 -155 -6 15 -21 52 -35 83
-15 31 -32 71 -39 87 -7 17 -20 46 -29 65 -9 19 -25 55 -35 80 -11 25 -32 70
-46 101 -14 31 -26 59 -26 62 0 4 -14 37 -31 74 -17 38 -37 82 -44 98 -7 17
-26 57 -42 90 l-28 60 -133 3 c-100 2 -134 -1 -137 -10z"/>
<path d="M8140 1910 c-112 -20 -219 -85 -283 -172 -46 -61 -63 -104 -78 -191
-27 -159 25 -322 126 -397 80 -60 101 -69 369 -156 81 -26 159 -57 173 -68 46
-35 63 -90 63 -201 0 -109 -16 -162 -61 -201 -70 -61 -252 -58 -323 5 -36 33
-65 96 -66 142 0 20 -6 41 -12 47 -14 11 -244 17 -271 6 -24 -9 -24 -146 1
-200 41 -93 119 -172 212 -215 104 -50 129 -54 305 -54 186 0 229 9 330 67
149 88 212 261 187 518 -21 208 -101 277 -442 380 -177 54 -201 64 -237 95
-29 25 -37 41 -44 85 -11 69 -1 166 21 202 45 74 157 107 264 76 78 -22 135
-100 136 -186 0 -56 17 -62 170 -62 145 0 146 0 137 128 -5 70 -11 92 -38 135
-58 94 -129 148 -269 202 -51 20 -290 30 -370 15z"/>
<path d="M397 163 c-10 -10 -8 -121 2 -127 15 -10 8474 -7 8484 3 4 4 7 35 5
67 l-3 59 -4241 3 c-2332 1 -4244 -1 -4247 -5z"/>
</g>
</svg>
