<?xml version="1.0" standalone="no"?>
<!DOCTYPE svg PUBLIC "-//W3C//DTD SVG 20010904//EN"
 "http://www.w3.org/TR/2001/REC-SVG-20010904/DTD/svg10.dtd">
<svg version="1.0" xmlns="http://www.w3.org/2000/svg"
 width="1173.000000pt" height="1111.000000pt" viewBox="0 0 1173.000000 1111.000000"
 preserveAspectRatio="xMidYMid meet">
<metadata>
Created by potrace 1.16, written by Peter Selinger 2001-2019
</metadata>
<g transform="translate(0.000000,1111.000000) scale(0.100000,-0.100000)"
fill="#000000" stroke="none">
<path d="M5675 10774 c-16 -2 -48 -9 -70 -15 -22 -6 -58 -15 -80 -21 -37 -10
-72 -24 -165 -66 -60 -27 -187 -120 -390 -287 -107 -89 -231 -188 -275 -220
-44 -33 -82 -62 -85 -65 -44 -45 -472 -349 -1234 -877 -177 -122 -326 -227
-333 -232 -7 -6 -14 -11 -17 -11 -8 0 -141 -94 -144 -102 -2 -4 -8 -8 -14 -8
-5 0 -78 -51 -161 -113 -84 -62 -197 -146 -252 -187 -167 -123 -289 -214 -310
-232 -11 -9 -72 -58 -135 -109 -97 -77 -142 -115 -264 -224 -88 -78 -131 -117
-244 -224 -172 -162 -386 -395 -543 -591 -122 -152 -239 -313 -239 -330 0 -5
-3 -10 -8 -12 -9 -4 -132 -193 -132 -203 0 -4 -8 -19 -18 -33 -47 -67 -232
-432 -232 -457 0 -2 -13 -32 -29 -67 -16 -35 -46 -110 -66 -168 -95 -275 -98
-286 -135 -455 -5 -22 -18 -74 -28 -115 -11 -41 -24 -104 -30 -140 -6 -36 -17
-96 -23 -135 -18 -102 -25 -1207 -8 -1335 22 -176 26 -199 74 -375 15 -55 31
-117 36 -137 9 -37 43 -135 59 -173 5 -11 16 -40 24 -65 44 -130 64 -176 170
-390 52 -103 122 -225 178 -307 15 -23 28 -44 28 -48 0 -3 10 -21 23 -38 53
-73 172 -232 177 -237 3 -3 18 -23 35 -45 16 -22 50 -62 75 -90 26 -27 82 -88
125 -135 182 -198 549 -496 748 -609 18 -10 73 -43 122 -73 145 -88 386 -202
554 -263 36 -13 98 -35 136 -49 142 -53 437 -123 665 -156 41 -6 102 -17 135
-23 87 -17 4883 -17 4970 0 33 6 93 17 133 22 177 26 220 34 267 47 28 7 77
20 110 28 133 32 221 56 240 65 29 14 196 72 223 78 12 3 25 9 28 14 3 5 12 9
20 9 8 0 89 36 180 80 91 44 167 80 169 80 17 0 436 267 455 290 3 3 41 32 84
63 137 99 366 315 537 507 67 75 299 375 299 386 0 3 5 10 10 17 54 62 291
508 337 632 21 56 44 116 54 140 4 11 15 40 23 65 9 25 23 65 32 90 9 25 20
61 24 80 5 19 20 78 34 130 41 155 53 210 66 300 6 47 16 108 21 135 21 103
33 288 33 525 0 222 -15 537 -27 557 -3 4 -12 71 -21 148 -9 77 -21 160 -26
185 -14 66 -59 259 -70 300 -5 19 -16 62 -24 95 -8 33 -22 80 -31 105 -10 25
-21 59 -25 75 -16 61 -99 282 -132 355 -20 41 -51 109 -69 150 -19 41 -69 137
-111 214 -43 76 -78 140 -78 142 0 7 -74 119 -163 249 -124 178 -275 370 -415
525 -116 129 -427 436 -547 540 -54 47 -119 104 -144 126 -25 23 -71 61 -101
85 -30 23 -61 48 -70 55 -95 79 -164 132 -260 204 -221 162 -295 217 -330 240
-19 13 -37 27 -40 30 -9 11 -184 134 -435 307 -137 95 -255 176 -260 180 -13
10 -122 85 -200 136 -33 22 -103 70 -155 107 -52 37 -223 156 -379 264 -258
180 -374 264 -471 338 -19 15 -82 62 -140 105 -95 70 -227 175 -433 346 -39
32 -91 73 -116 90 -25 17 -59 41 -74 54 -45 36 -193 104 -287 130 -67 19 -116
25 -235 28 -82 2 -163 1 -180 -1z m300 -723 c48 -27 182 -131 401 -312 44 -37
123 -99 175 -138 52 -38 99 -74 104 -78 6 -5 35 -26 65 -48 30 -22 57 -42 60
-45 3 -3 30 -24 60 -45 30 -22 62 -46 70 -52 18 -15 172 -123 329 -230 163
-112 182 -126 546 -378 182 -126 406 -280 499 -343 142 -96 246 -171 436 -312
14 -10 95 -69 180 -131 143 -104 288 -214 300 -229 3 -3 23 -19 45 -35 228
-167 713 -636 913 -884 97 -120 332 -442 332 -456 0 -2 35 -65 78 -141 71
-128 122 -226 122 -239 0 -2 23 -53 50 -111 28 -58 50 -113 50 -120 0 -8 4
-22 10 -32 14 -26 91 -261 100 -307 5 -22 16 -69 25 -105 27 -102 49 -221 71
-375 20 -152 44 -468 44 -595 0 -116 -21 -363 -44 -510 -19 -124 -24 -148 -61
-285 -9 -33 -21 -78 -27 -100 -12 -46 -27 -91 -38 -120 -5 -11 -20 -54 -35
-95 -32 -89 -43 -114 -126 -285 -34 -71 -66 -132 -71 -133 -4 -2 -8 -8 -8 -14
0 -5 -11 -24 -25 -42 -14 -18 -25 -36 -25 -39 0 -12 -88 -144 -166 -248 -337
-454 -825 -826 -1344 -1023 -69 -26 -141 -54 -160 -62 -34 -13 -117 -37 -190
-54 -19 -5 -73 -17 -120 -29 -47 -11 -118 -25 -157 -31 -40 -6 -103 -16 -140
-23 -99 -18 -4787 -18 -4886 0 -37 7 -100 17 -140 23 -39 6 -126 24 -192 40
-218 52 -228 55 -456 141 -117 43 -351 161 -479 240 -98 61 -243 161 -260 179
-3 3 -23 19 -46 35 -145 105 -416 379 -546 551 -88 117 -108 145 -181 262 -67
107 -237 435 -237 459 0 4 -19 55 -41 113 -23 58 -48 130 -56 160 -8 30 -23
89 -35 130 -54 198 -98 537 -98 760 0 215 46 696 80 830 5 19 21 87 35 150 23
100 80 294 104 355 5 11 16 45 26 75 43 132 202 461 281 582 13 21 24 40 24
43 0 14 243 360 271 385 3 3 39 48 81 100 147 183 414 454 668 676 205 179
398 330 734 574 48 36 118 87 155 114 36 28 217 154 401 282 184 128 353 246
375 262 51 36 115 81 520 364 280 195 482 340 545 391 8 7 71 55 140 106 69
52 199 156 290 230 315 260 324 264 468 256 57 -4 86 -12 127 -34z"/>
<path d="M5730 9464 c-56 -21 -111 -55 -151 -95 -43 -42 -55 -62 -88 -142 -8
-20 -11 -326 -11 -1124 l0 -1095 22 -66 c17 -49 36 -78 74 -117 78 -78 129
-99 244 -100 82 0 102 3 150 26 60 29 127 95 158 156 42 82 43 111 40 1228
l-3 1070 -32 65 c-39 79 -90 133 -157 168 -42 21 -67 26 -141 29 -49 1 -97 0
-105 -3z"/>
<path d="M4541 8694 c-59 -21 -87 -39 -139 -88 -41 -39 -92 -128 -92 -162 0
-8 -7 -50 -16 -92 -27 -131 -47 -159 -283 -387 -139 -135 -195 -199 -253 -290
-118 -186 -168 -355 -170 -571 0 -111 2 -136 20 -177 28 -62 104 -142 167
-175 44 -24 61 -27 150 -27 89 0 106 3 151 27 66 35 125 93 154 153 23 48 49
172 50 238 0 22 15 69 37 115 33 69 54 94 204 242 141 139 217 223 292 321 72
95 148 289 162 419 4 30 9 75 12 98 12 88 -39 214 -113 284 -81 75 -235 108
-333 72z"/>
<path d="M6994 8701 c-96 -25 -183 -97 -230 -191 -25 -50 -27 -64 -27 -162 2
-215 74 -407 227 -599 46 -57 141 -160 212 -227 227 -217 252 -260 274 -467
15 -142 80 -243 193 -302 46 -24 63 -27 147 -27 82 -1 103 3 150 26 59 27 126
91 157 148 39 72 48 141 34 269 -14 132 -24 177 -58 276 -68 194 -156 316
-402 558 -192 188 -231 241 -245 337 -4 25 -10 65 -14 90 -26 151 -163 270
-317 276 -38 2 -84 0 -101 -5z"/>
</g>
</svg>
