<?xml version="1.0" standalone="no"?>
<!DOCTYPE svg PUBLIC "-//W3C//DTD SVG 20010904//EN"
 "http://www.w3.org/TR/2001/REC-SVG-20010904/DTD/svg10.dtd">
<svg version="1.0" xmlns="http://www.w3.org/2000/svg"
 width="300.000000pt" height="408.000000pt" viewBox="0 0 300.000000 408.000000"
 preserveAspectRatio="xMidYMid meet">
<metadata>
Created by potrace 1.10, written by Peter Selinger 2001-2011
</metadata>
<g transform="translate(0.000000,408.000000) scale(0.050000,-0.050000)"
fill="#ffffff" stroke="none">
<path d="M2815 6931 c-42 -14 -87 -35 -100 -46 -14 -10 -115 -90 -225 -177
-110 -87 -393 -293 -630 -457 -883 -613 -1212 -901 -1465 -1281 -724 -1092
-404 -2497 695 -3045 398 -198 503 -208 2010 -200 l1250 6 190 52 c1034 283
1605 1229 1411 2337 -135 773 -522 1226 -1801 2110 -363 251 -474 333 -823
604 -161 125 -340 159 -512 97z m454 -497 c115 -91 396 -295 625 -453 850
-588 1135 -825 1370 -1141 771 -1035 309 -2487 -868 -2728 -257 -53 -2583 -47
-2808 7 -1137 273 -1593 1590 -914 2641 218 337 508 588 1393 1207 262 183
558 399 659 480 270 216 254 217 543 -13z"/>
<path d="M2910 6277 c-89 -49 -90 -56 -90 -687 l0 -603 51 -48 c72 -68 179
-64 242 8 l47 55 0 597 0 597 -62 52 c-65 55 -123 64 -188 29z"/>
<path d="M2284 5869 c-25 -18 -54 -70 -68 -125 -17 -70 -49 -118 -127 -194
-264 -255 -328 -562 -134 -643 61 -26 76 -25 141 7 73 36 79 48 114 214 7 34
67 114 140 191 206 213 269 423 161 532 -58 57 -159 65 -227 18z"/>
<path d="M3503 5854 c-101 -108 -40 -334 139 -514 144 -146 178 -198 178 -274
0 -156 183 -232 293 -122 113 113 46 363 -152 566 -126 130 -161 184 -161 250
0 123 -207 189 -297 94z"/>
</g>
</svg>
