<?xml version="1.0" standalone="no"?>
<!DOCTYPE svg PUBLIC "-//W3C//DTD SVG 20010904//EN"
 "http://www.w3.org/TR/2001/REC-SVG-20010904/DTD/svg10.dtd">
<svg version="1.0" xmlns="http://www.w3.org/2000/svg"
 width="900.000000pt" height="825.000000pt" viewBox="0 0 900.000000 825.000000"
 preserveAspectRatio="xMidYMid meet">
<metadata>
Created by potrace 1.10, written by Peter Selinger 2001-2011
</metadata>
<g transform="translate(0.000000,825.000000) scale(0.100000,-0.100000)"
fill="#000000" stroke="none">
<path d="M3253 6957 c-85 -90 -112 -168 -92 -266 15 -75 30 -107 114 -236 39
-60 76 -123 83 -138 22 -50 15 -99 -23 -157 -58 -93 -68 -118 -55 -153 18 -54
48 -77 99 -77 41 0 49 5 92 50 105 108 143 255 99 382 -24 69 -43 105 -131
241 -71 109 -76 147 -30 206 61 77 64 121 14 173 -22 23 -35 28 -73 28 -44 0
-51 -4 -97 -53z"/>
<path d="M4885 6945 c-16 -9 -38 -23 -47 -32 -30 -27 -76 -106 -94 -162 -17
-52 -17 -58 1 -125 21 -82 29 -100 108 -219 111 -168 121 -220 61 -308 -61
-89 -69 -116 -49 -159 18 -40 60 -70 98 -70 60 0 160 117 191 223 40 139 11
242 -128 449 -86 127 -89 155 -22 226 26 28 31 41 31 82 0 40 -5 55 -26 75
-32 33 -84 41 -124 20z"/>
<path d="M4190 6261 c-77 -77 -95 -120 -95 -226 0 -86 2 -93 39 -160 21 -38
62 -106 90 -150 96 -148 100 -186 31 -291 -63 -95 -59 -155 13 -197 48 -28 96
-12 149 50 93 112 126 252 87 372 -20 61 -68 150 -119 221 -46 64 -75 125 -75
157 0 16 12 43 28 63 65 79 69 125 18 176 -28 28 -42 34 -75 34 -37 0 -48 -6
-91 -49z"/>
<path d="M6307 5480 c-53 -14 -88 -33 -142 -80 -57 -50 -95 -52 -157 -11 -106
70 -250 82 -330 25 -56 -39 -102 -101 -123 -166 -70 -216 -207 -359 -490 -513
-84 -45 -114 -67 -115 -79 0 -25 64 -175 77 -181 9 -3 30 3 47 14 17 11 66 38
110 61 203 108 325 207 436 355 60 80 130 207 130 235 0 6 9 29 20 50 27 52
49 52 148 -2 75 -42 80 -43 167 -43 101 1 134 13 219 84 26 23 57 41 67 41 23
0 55 -34 64 -68 4 -15 22 -58 42 -97 106 -211 345 -448 586 -578 86 -47 242
-163 293 -219 108 -117 186 -251 203 -349 35 -207 -5 -412 -110 -555 -36 -49
-166 -174 -181 -174 -4 0 -24 -12 -45 -26 -169 -115 -512 -198 -883 -212
l-165 -7 -8 -94 c-4 -52 -5 -101 -2 -110 5 -12 33 -13 188 -8 220 8 476 44
612 88 120 38 158 51 173 58 9 5 49 23 87 42 86 41 158 83 209 123 l38 29 19
-24 c41 -54 78 -206 79 -321 0 -155 -40 -277 -146 -438 -164 -249 -498 -496
-917 -677 -197 -84 -508 -187 -722 -238 -38 -9 -86 -20 -105 -25 -181 -46
-526 -97 -848 -125 -234 -20 -830 -20 -1064 0 -322 28 -667 79 -848 125 -19 5
-66 16 -105 25 -108 26 -231 62 -375 109 -685 225 -1155 551 -1338 927 -56
114 -75 215 -69 349 7 142 38 250 72 250 7 0 52 -29 100 -65 225 -168 535
-267 978 -311 116 -12 171 -14 178 -7 7 7 3 41 -14 109 -28 114 -19 107 -177
119 -160 11 -419 66 -528 111 -18 8 -37 14 -43 14 -18 0 -211 99 -249 128
-211 156 -320 353 -320 576 0 173 74 329 230 485 59 59 191 161 256 197 10 6
55 30 99 54 248 134 437 327 519 530 50 125 54 130 89 130 18 0 48 -11 67 -24
19 -13 59 -33 87 -46 94 -40 225 -17 308 56 89 77 110 73 156 -33 60 -140 130
-243 253 -371 113 -118 330 -280 360 -269 8 3 24 35 36 71 12 36 26 68 31 71
5 4 9 16 9 28 0 16 -21 38 -77 79 -165 119 -328 296 -380 410 -43 95 -53 119
-53 130 0 19 -70 98 -103 115 -130 70 -237 55 -356 -49 -60 -52 -80 -56 -132
-22 -73 47 -121 65 -189 71 -98 8 -143 -8 -209 -75 -47 -48 -60 -69 -80 -131
-29 -94 -60 -149 -128 -233 -48 -59 -176 -171 -232 -202 -11 -6 -42 -23 -68
-37 -26 -15 -72 -40 -102 -56 -221 -123 -445 -347 -532 -533 -93 -199 -104
-397 -35 -621 8 -26 19 -55 24 -65 5 -11 22 -43 37 -72 l27 -53 -23 -47 c-76
-156 -109 -292 -109 -447 0 -133 15 -210 72 -365 19 -53 125 -228 179 -295
128 -161 342 -339 569 -471 120 -70 391 -203 486 -237 176 -64 230 -83 312
-108 118 -36 314 -89 367 -99 22 -4 60 -12 85 -18 221 -54 536 -100 855 -127
188 -16 609 -23 835 -14 231 9 305 14 545 39 184 18 508 74 621 106 28 8 59
14 69 14 10 0 43 7 74 16 31 9 79 22 106 30 28 8 102 30 165 48 101 30 154 48
334 113 101 36 367 166 486 238 349 209 577 431 708 690 149 294 149 580 1
881 l-40 82 36 66 c107 193 141 428 96 652 -45 225 -231 471 -483 637 -62 41
-133 85 -158 98 -108 56 -307 235 -385 344 -53 75 -125 217 -125 247 0 23 -70
95 -117 121 -56 30 -138 41 -196 27z"/>
<path d="M6054 5090 c-46 -19 -64 -57 -64 -140 0 -84 -20 -162 -57 -222 -33
-54 -37 -81 -18 -123 32 -66 110 -85 165 -39 69 59 118 201 122 359 2 114 -6
140 -57 161 -38 16 -60 17 -91 4z"/>
<path d="M2426 4956 c-36 -33 -36 -34 -36 -114 0 -89 -15 -145 -61 -235 -40
-76 -32 -117 31 -160 113 -78 236 111 242 369 2 110 -6 135 -52 159 -47 25
-84 19 -124 -19z"/>
<path d="M5750 4953 c-27 -10 -49 -35 -76 -87 -14 -28 -36 -62 -49 -76 -66
-74 -74 -132 -26 -181 24 -24 38 -29 77 -29 45 0 51 3 104 58 89 92 128 195
100 263 -19 44 -82 69 -130 52z"/>
<path d="M6409 4945 c-15 -8 -34 -31 -44 -51 -16 -34 -16 -40 -1 -86 10 -31
16 -85 16 -142 0 -97 -13 -136 -66 -199 -68 -82 30 -212 123 -163 38 19 84 67
104 108 52 104 54 117 53 268 -1 128 -3 151 -23 193 -35 76 -101 105 -162 72z"/>
<path d="M2129 4833 c-14 -8 -36 -39 -49 -67 -13 -28 -43 -73 -67 -101 -34
-40 -43 -57 -43 -88 0 -49 21 -80 69 -102 37 -16 41 -16 75 0 66 32 148 143
174 236 11 42 -6 94 -41 121 -28 22 -84 22 -118 1z"/>
<path d="M2792 4820 c-39 -38 -47 -76 -27 -123 10 -24 15 -69 15 -134 0 -104
-12 -141 -66 -206 -34 -41 -32 -87 7 -132 27 -30 37 -35 75 -35 38 0 51 6 87
39 41 39 56 63 93 151 16 37 19 69 18 190 -1 127 -4 151 -23 192 -42 92 -121
117 -179 58z"/>
<path d="M4425 4653 c-45 -18 -85 -44 -133 -85 -43 -37 -71 -35 -146 7 -34 19
-95 42 -134 51 -67 15 -76 15 -123 0 -103 -34 -161 -95 -198 -206 -63 -192
-233 -368 -481 -496 -112 -58 -268 -165 -354 -243 -31 -28 -166 -187 -166
-195 0 -3 -13 -25 -30 -49 -153 -228 -161 -568 -19 -834 127 -238 360 -414
694 -524 113 -37 128 -41 194 -56 237 -50 475 -73 781 -73 346 0 576 29 845
105 216 61 452 196 569 326 241 267 301 668 146 985 -103 212 -302 405 -565
549 -201 109 -418 327 -493 495 -12 25 -29 67 -39 94 -47 126 -220 200 -348
149z m142 -233 c7 -14 30 -63 52 -110 48 -103 124 -208 228 -313 100 -101 241
-215 318 -257 161 -87 230 -136 324 -228 157 -154 221 -269 242 -432 34 -275
-76 -513 -304 -664 -174 -114 -352 -174 -640 -217 -308 -45 -908 -29 -1182 32
-302 68 -511 172 -660 331 -89 95 -147 203 -175 328 -24 105 -24 141 -4 233
55 243 250 455 574 623 151 78 328 221 416 336 51 66 134 218 134 245 0 10 9
33 21 52 19 31 23 33 62 29 23 -3 62 -18 87 -35 122 -80 258 -69 380 32 64 53
105 58 127 15z"/>
<path d="M4185 4262 c-42 -35 -49 -53 -55 -155 -6 -88 -12 -112 -43 -181 -21
-43 -37 -87 -37 -98 0 -51 58 -108 110 -108 57 0 120 74 159 190 28 79 41 263
22 307 -23 57 -113 82 -156 45z"/>
<path d="M3866 4119 c-15 -12 -40 -46 -55 -78 -16 -31 -39 -65 -51 -76 -94
-85 -42 -220 78 -202 75 12 194 179 196 275 1 37 -4 48 -32 73 -40 36 -96 39
-136 8z"/>
<path d="M4560 4127 c-14 -7 -32 -28 -42 -47 -15 -33 -15 -40 3 -125 25 -119
14 -193 -42 -281 -42 -65 -48 -99 -24 -143 17 -35 75 -64 109 -55 65 16 151
133 170 234 25 125 26 146 10 240 -9 52 -22 107 -30 122 -31 60 -97 84 -154
55z"/>
<path d="M2998 3311 c-37 -30 -79 -95 -99 -158 -51 -152 7 -341 147 -480 65
-67 75 -73 112 -73 77 0 129 74 102 145 -6 16 -34 53 -61 82 -65 69 -93 131
-94 208 0 52 5 68 33 111 43 68 43 105 -2 150 -27 27 -42 34 -74 34 -24 0 -49
-8 -64 -19z"/>
<path d="M5352 2823 c-18 -9 -39 -28 -47 -43 -74 -143 -416 -274 -667 -254
-101 8 -136 -2 -161 -45 -40 -67 -5 -138 80 -162 27 -8 91 -13 148 -13 275 2
570 114 718 273 106 113 109 199 10 250 -29 15 -42 14 -81 -6z"/>
<path d="M7167 3615 c-132 -147 -202 -190 -392 -242 -87 -23 -120 -27 -252
-27 -152 -1 -153 -1 -179 -28 -22 -21 -27 -36 -27 -73 0 -111 124 -147 384
-110 297 41 594 216 640 377 20 70 -31 138 -103 138 -33 0 -45 -6 -71 -35z"/>
</g>
</svg>
