<?xml version="1.0" standalone="no"?>
<!DOCTYPE svg PUBLIC "-//W3C//DTD SVG 20010904//EN"
 "http://www.w3.org/TR/2001/REC-SVG-20010904/DTD/svg10.dtd">
<svg version="1.0" xmlns="http://www.w3.org/2000/svg"
 width="450.000000pt" height="156.000000pt" viewBox="0 0 450.000000 156.000000"
 preserveAspectRatio="xMidYMid meet">
<metadata>
Created by potrace 1.10, written by Peter Selinger 2001-2011
</metadata>
<g transform="translate(0.000000,156.000000) scale(0.050000,-0.050000)"
fill="#000000" stroke="none">
<path d="M7566 2465 c-98 -71 -104 -80 -108 -170 -2 -52 -5 -106 -6 -120 -1
-17 35 -26 113 -28 l115 -3 0 198 c0 109 -2 198 -5 198 -3 0 -52 -34 -109 -75z"/>
<path d="M2817 2333 c-84 -68 -226 -180 -315 -250 -543 -422 -543 -1164 -1
-1371 153 -58 1035 -40 1159 25 411 213 480 802 137 1174 -48 52 -211 188
-362 303 -151 115 -280 217 -286 227 -37 61 -180 15 -332 -108z m272 -51 c6
-10 98 -84 205 -165 502 -379 631 -604 536 -930 -86 -294 -224 -352 -817 -343
-530 8 -655 66 -733 338 -94 326 46 576 524 932 106 80 199 154 206 165 15 26
64 27 79 3z"/>
<path d="M3004 2215 c-25 -30 -39 -434 -17 -470 24 -38 109 -30 132 13 49 92
-7 482 -69 482 -14 0 -34 -11 -46 -25z"/>
<path d="M2774 2025 c-104 -149 -123 -199 -97 -256 34 -74 123 -62 149 21 11
33 35 78 54 100 78 88 73 210 -8 210 -30 0 -63 -26 -98 -75z"/>
<path d="M3193 2087 c-29 -29 -10 -125 37 -195 28 -41 50 -86 50 -100 0 -45
56 -77 110 -64 74 19 70 138 -7 232 -31 39 -62 86 -69 105 -12 34 -94 49 -121
22z"/>
<path d="M6489 2394 c-44 -37 -169 -135 -279 -218 -398 -300 -520 -491 -520
-816 0 -300 114 -499 354 -619 l122 -61 484 0 484 0 124 62 c255 128 386 405
342 721 -40 279 -161 443 -540 726 -115 87 -240 183 -276 214 -94 81 -192 78
-295 -9z m214 -127 c15 -18 113 -97 217 -175 420 -312 530 -477 517 -774 -18
-389 -185 -485 -834 -474 -539 8 -680 81 -743 385 -65 315 51 507 540 889 247
193 261 200 303 149z"/>
<path d="M6591 2208 c-48 -48 -37 -444 14 -476 79 -50 105 4 111 237 7 259
-32 332 -125 239z"/>
<path d="M6389 2056 c-8 -25 -41 -76 -73 -113 -66 -76 -71 -173 -11 -211 43
-27 101 4 112 60 5 21 30 64 56 96 70 82 60 199 -16 208 -41 5 -57 -4 -68 -40z"/>
<path d="M6780 2070 c-32 -38 -13 -112 48 -183 26 -32 50 -74 55 -95 11 -56
69 -87 112 -60 60 38 55 135 -11 211 -32 37 -65 87 -73 112 -16 53 -92 61
-131 15z"/>
<path d="M4239 2370 c0 0 -2 -357 -4 -794 l-5 -793 146 -7 146 -6 -3 486 c-3
474 3 556 31 461 8 -26 68 -184 134 -352 l119 -305 75 0 76 0 112 285 c63 157
122 310 133 340 42 118 51 38 44 -425 l-6 -480 131 0 c73 0 137 0 143 0 6 0
10 356 10 790 0 435 -4 790 -10 790 -6 0 -70 0 -142 0 -106 0 -133 -6 -142
-35 -7 -19 -73 -174 -147 -345 -74 -170 -145 -344 -159 -385 -30 -92 -50 -95
-79 -10 -13 36 -91 224 -176 418 l-152 354 -137 6 c-76 4 -137 7 -138 7z"/>
<path d="M635 1560 l6 -800 140 0 140 0 -2 482 c-2 462 4 549 33 466 7 -21 67
-176 133 -344 l119 -306 80 6 79 6 133 335 c72 184 137 335 143 335 6 0 8
-220 4 -490 l-6 -490 146 0 147 0 4 800 4 800 -145 0 -144 0 -180 -420 c-192
-451 -194 -453 -227 -355 -13 36 -92 225 -176 420 l-154 355 -141 0 -141 0 5
-800z"/>
<path d="M8114 2333 c-247 -70 -383 -317 -314 -573 40 -148 139 -225 405 -310
302 -98 303 -99 312 -277 10 -204 -37 -262 -214 -262 -153 0 -223 54 -223 172
l0 77 -163 0 -162 0 9 -100 c24 -245 208 -370 546 -370 372 0 493 108 507 451
12 310 -46 386 -377 487 -310 96 -393 165 -352 295 5 15 14 52 21 82 42 194
411 127 411 -76 l0 -69 160 0 160 0 0 55 c-1 310 -365 520 -726 418z"/>
<path d="M400 530 l0 -70 4250 0 4250 0 0 70 0 70 -4250 0 -4250 0 0 -70z"/>
<path d="M6726 345 c-19 -51 -73 -87 -89 -60 -29 47 -77 -4 -77 -82 l0 -78
100 0 100 0 0 127 c0 129 -10 157 -34 93z"/>
<path d="M7566 345 c-7 -19 -25 -42 -39 -51 -53 -32 -34 -174 23 -174 48 0 50
5 50 130 0 131 -10 160 -34 95z"/>
<path d="M7677 249 c-8 -150 78 -199 104 -59 l11 60 14 -69 c8 -40 6 -77 -6
-89 -25 -25 -26 -52 -1 -52 30 0 56 60 71 165 14 92 -15 140 -36 60 -9 -33
-10 -33 -12 1 -1 20 -13 34 -27 33 -52 -7 -75 2 -75 30 0 97 -38 28 -43 -80z"/>
<path d="M8571 345 c-9 -25 -32 -45 -53 -45 -32 0 -38 -15 -38 -90 0 -50 9
-90 20 -90 11 0 20 32 20 70 0 39 9 70 20 70 11 0 20 -31 20 -70 0 -38 9 -70
20 -70 11 0 20 11 20 24 0 19 5 19 24 0 50 -50 93 -28 101 51 l8 75 4 -72 c3
-69 6 -72 84 -75 l81 -3 -6 85 c-6 88 -96 148 -96 65 0 -18 9 -27 20 -20 11 7
20 4 20 -7 0 -10 -13 -24 -30 -30 -22 -9 -30 2 -30 38 0 30 -11 49 -30 49 -17
0 -30 18 -30 41 0 23 -9 36 -20 29 -11 -7 -20 -59 -21 -116 0 -81 -5 -96 -21
-69 -11 20 -14 56 -6 80 12 39 10 41 -18 19 -27 -23 -32 -18 -40 40 -7 60 -9
62 -23 21z"/>
<path d="M4856 345 c-15 -36 -4 -215 14 -219 11 -2 19 13 18 35 -2 54 9 49 33
-14 11 -29 24 -49 28 -45 17 18 17 238 0 237 -11 0 -17 -21 -15 -45 3 -37 0
-35 -19 11 -22 54 -46 70 -59 40z"/>
<path d="M5331 257 c17 -148 18 -149 80 -148 64 1 89 43 35 57 -35 9 -35 9 0
12 28 1 35 15 30 57 -9 78 -61 69 -91 -15 l-25 -70 4 99 c3 64 -4 101 -21 107
-19 6 -22 -18 -12 -99z"/>
<path d="M6376 325 c-13 -55 6 -225 26 -225 10 0 19 38 21 85 l3 85 12 -80
c14 -94 87 -118 99 -33 13 96 -14 148 -69 134 -45 -11 -50 -7 -38 28 9 28 4
41 -16 41 -16 0 -33 -16 -38 -35z"/>
<path d="M8020 330 c0 -16 -13 -30 -30 -30 -22 0 -30 -23 -30 -89 l0 -88 110
0 c108 0 110 1 110 57 0 76 -19 120 -51 120 -35 0 -60 -41 -34 -57 13 -8 10
-22 -7 -39 -24 -22 -28 -11 -28 65 0 50 -9 91 -20 91 -11 0 -20 -13 -20 -30z"/>
<path d="M5880 309 c0 -22 -12 -28 -37 -20 -61 19 -97 -41 -53 -89 35 -39 35
-40 -1 -40 -35 0 -35 -3 -5 -32 18 -18 42 -27 54 -19 29 17 28 85 0 102 -16
10 -14 19 5 31 20 13 29 -1 37 -58 14 -104 100 -115 100 -12 0 36 9 71 20 78
20 12 27 -12 22 -72 -4 -39 49 -86 77 -69 33 20 25 51 -13 51 -30 0 -30 2 2
26 68 49 32 104 -67 104 -52 0 -91 10 -96 25 -12 36 -45 31 -45 -6z"/>
<path d="M6252 309 c-6 -17 -21 -26 -33 -19 -34 21 -79 -30 -79 -90 0 -60 45
-111 79 -91 31 20 25 51 -9 51 -25 0 -24 6 5 35 33 34 35 33 45 -20 8 -46 40
-82 40 -45 0 6 0 55 0 110 0 98 -24 132 -48 69z"/>
<path d="M5004 276 c-54 -54 -5 -203 55 -167 33 21 25 51 -14 52 -33 0 -32 2
2 28 38 29 39 92 2 105 -11 3 -31 -4 -45 -18z"/>
<path d="M5100 171 c0 -74 9 -131 20 -131 11 0 20 13 20 28 0 15 14 33 31 40
53 20 31 180 -26 188 -43 6 -45 0 -45 -125z"/>
<path d="M5233 287 c-24 -24 -14 -47 21 -47 30 0 30 -2 -2 -26 -47 -34 -34
-104 18 -104 31 0 41 16 46 66 9 85 -42 152 -83 111z"/>
<path d="M5513 287 c-25 -26 -13 -85 22 -105 33 -20 33 -21 0 -21 -19 -1 -35
-9 -35 -20 0 -33 41 -45 71 -20 23 19 35 19 58 0 29 -25 71 -13 71 19 0 9 -16
21 -35 26 -32 9 -32 10 1 12 28 1 35 15 30 57 -9 80 -73 86 -88 8 -10 -48 -18
-55 -38 -37 -17 16 -18 29 -5 37 11 7 14 23 6 35 -15 25 -38 28 -58 9z"/>
<path d="M6840 210 c0 -50 9 -90 20 -90 11 0 20 40 20 90 0 50 -9 90 -20 90
-11 0 -20 -40 -20 -90z"/>
<path d="M6900 211 c0 -109 34 -122 45 -16 l8 75 4 -75 c1 -41 13 -75 24 -75
47 0 12 170 -36 176 -41 6 -45 -1 -45 -85z"/>
<path d="M7027 269 c-7 -17 4 -48 24 -70 32 -35 32 -39 2 -39 -18 0 -33 -10
-33 -22 0 -13 21 -19 50 -13 42 8 50 2 50 -38 0 -26 9 -47 20 -47 11 0 20 18
20 40 0 22 13 40 30 40 22 0 30 23 30 91 0 102 -82 132 -96 35 -6 -43 -64 -45
-64 -3 0 11 9 14 20 7 11 -7 20 2 20 19 0 40 -58 40 -73 0z"/>
<path d="M7240 210 c0 -50 9 -90 20 -90 11 0 20 40 20 90 0 50 -9 90 -20 90
-11 0 -20 -40 -20 -90z"/>
<path d="M7300 210 c0 -50 9 -90 20 -90 11 0 20 26 20 59 0 82 36 96 44 16 6
-70 96 -114 96 -47 0 20 -12 27 -35 20 -32 -10 -32 -8 2 19 63 52 34 102 -62
108 l-85 5 0 -90z"/>
<path d="M8253 287 c-30 -31 -13 -164 22 -173 32 -9 32 -10 -2 -12 -48 -3 -31
-52 19 -52 33 0 39 17 44 125 6 122 -27 167 -83 112z"/>
<path d="M8360 210 c0 -83 4 -90 50 -90 46 0 50 7 50 90 0 109 -34 120 -45 15
l-8 -75 -4 75 c-4 107 -43 93 -43 -15z"/>
</g>
</svg>
