 <svg  version="1.0" xmlns="http://www.w3.org/2000/svg"  width="450.000000pt" height="135.000000pt" viewBox="0 0 450.000000 135.000000"  preserveAspectRatio="xMidYMid meet">  <g transform="translate(0.000000,135.000000) scale(0.050000,-0.050000)" fill="#ffffff" stroke="none"> <path d="M7566 2045 c-98 -71 -104 -80 -108 -170 -2 -52 -5 -106 -6 -120 -3 -32 209 -35 221 -3 5 11 6 99 3 195 l-6 174 -104 -76z"/> <path d="M2817 1913 c-85 -67 -226 -178 -313 -246 -470 -363 -553 -921 -187 -1251 162 -145 216 -156 753 -156 l464 0 122 61 c415 208 486 795 141 1170 -48 52 -211 188 -362 303 -151 115 -280 217 -286 227 -37 61 -180 15 -332 -108z m468 -205 c511 -392 640 -613 546 -938 -82 -283 -232 -350 -775 -350 -630 1 -786 104 -786 520 0 297 61 385 520 748 289 228 225 226 495 20z"/> <path d="M3004 1795 c-25 -30 -39 -434 -17 -470 23 -37 109 -30 131 11 49 91 -6 484 -68 484 -14 0 -34 -11 -46 -25z"/> <path d="M2782 1615 c-23 -36 -60 -92 -82 -125 -47 -70 -50 -109 -13 -159 39 -54 125 -28 142 44 8 30 30 73 50 95 80 88 75 210 -8 210 -31 0 -61 -22 -89 -65z"/> <path d="M3193 1667 c-27 -28 -11 -124 32 -189 25 -37 56 -93 70 -123 24 -55 53 -66 113 -43 54 21 41 148 -25 228 -31 39 -62 86 -69 105 -12 34 -94 49 -121 22z"/> <path d="M6489 1974 c-44 -37 -169 -135 -279 -218 -110 -83 -243 -197 -296 -254 -347 -372 -294 -950 109 -1173 l107 -59 481 -6 c632 -8 776 45 925 341 195 392 51 764 -440 1136 -136 103 -276 212 -312 243 -94 80 -192 77 -295 -10z m214 -127 c15 -19 108 -94 207 -167 434 -321 520 -444 520 -741 0 -234 -55 -347 -219 -448 l-98 -61 -461 0 c-570 0 -625 20 -755 270 -154 298 3 630 457 962 64 47 151 115 195 152 88 75 114 80 154 33z"/> <path d="M6591 1788 c-48 -48 -37 -444 14 -476 79 -50 105 4 111 237 7 259 -32 332 -125 239z"/> <path d="M6389 1636 c-8 -25 -41 -76 -73 -113 -66 -76 -71 -173 -11 -211 43 -27 101 4 112 60 5 21 30 64 56 96 70 82 60 199 -16 208 -41 5 -57 -4 -68 -40z"/> <path d="M6780 1650 c-32 -38 -13 -112 48 -183 26 -32 50 -74 55 -95 11 -56 69 -87 112 -60 60 38 55 135 -11 211 -32 37 -65 87 -73 112 -16 53 -92 61 -131 15z"/> <path d="M4239 1957 c0 -4 -2 -365 -5 -802 l-4 -795 146 0 146 0 -3 481 c-3 469 3 551 31 456 8 -26 68 -184 134 -352 l119 -305 76 0 75 0 121 305 c66 168 127 326 135 352 30 99 36 5 32 -457 l-5 -480 147 0 146 0 -4 795 c-3 533 -11 794 -25 793 -12 -1 -75 -3 -142 -5 -95 -2 -123 -10 -132 -38 -7 -19 -73 -174 -147 -345 -74 -170 -145 -344 -159 -385 -27 -85 -52 -96 -72 -30 -7 25 -86 214 -174 420 l-161 375 -105 0 c-58 0 -120 5 -137 12 -18 7 -32 9 -33 5z"/> <path d="M635 1142 l6 -798 140 0 141 0 -6 488 c-5 443 4 553 37 453 6 -19 66 -173 132 -341 l121 -306 79 6 78 6 133 335 c72 184 137 335 143 335 6 0 8 -220 4 -489 l-6 -489 144 4 145 4 6 795 6 795 -145 0 -144 0 -180 -420 c-183 -430 -197 -453 -220 -375 -7 25 -86 214 -175 420 l-161 375 -142 0 -141 0 5 -798z"/> <path d="M8114 1913 c-247 -70 -383 -317 -314 -573 40 -149 136 -222 412 -311 293 -95 308 -108 308 -285 0 -158 -28 -210 -131 -244 -158 -52 -309 28 -309 163 l0 77 -160 0 -160 0 0 -71 c0 -459 904 -577 1036 -135 107 359 -2 566 -356 676 -314 97 -393 163 -352 293 5 15 14 52 21 82 42 195 411 129 411 -73 l0 -72 160 0 160 0 0 55 c-1 310 -365 520 -726 418z"/> <path d="M400 110 l0 -70 4250 0 4250 0 0 70 0 70 -4250 0 -4250 0 0 -70z"/> </g> </svg> 